<?xml version="1.0" standalone="no"?>
<!DOCTYPE svg PUBLIC "-//W3C//DTD SVG 20010904//EN"
 "http://www.w3.org/TR/2001/REC-SVG-20010904/DTD/svg10.dtd">
<svg version="1.0" xmlns="http://www.w3.org/2000/svg"
 width="134.000000pt" height="200.000000pt" viewBox="0 0 134.000000 200.000000"
 preserveAspectRatio="xMidYMid meet">

<g transform="translate(0.000000,200.000000) scale(0.100000,-0.100000)"
fill="#14402B" stroke="none">
<path d="M620 1980 c-11 -11 -20 -31 -20 -45 0 -24 2 -25 65 -25 63 0 65 1 65
25 0 14 -9 34 -20 45 -11 11 -31 20 -45 20 -14 0 -34 -9 -45 -20z"/>
<path d="M617 1864 c-9 -9 -9 -366 -1 -388 3 -9 12 -16 19 -16 31 0 23 -20
-12 -35 -21 -9 -51 -28 -67 -43 -51 -48 -56 -74 -56 -282 0 -214 2 -219 65
-176 67 46 133 46 201 0 62 -43 64 -38 64 175 0 109 -5 202 -11 218 -5 15 -29
47 -52 71 l-42 43 -5 217 -5 217 -45 3 c-25 2 -49 0 -53 -4z m61 -66 c-5 -15
-58 -24 -58 -10 0 15 12 22 38 22 14 0 22 -5 20 -12z m-18 -37 c0 -14 -18 -23
-30 -16 -6 4 -8 11 -5 16 8 12 35 12 35 0z m-57 -423 c-14 -26 -19 -67 -23
-188 -4 -137 -7 -155 -22 -158 -16 -3 -18 6 -19 65 -3 128 3 238 13 258 16 31
40 55 55 55 11 0 10 -7 -4 -32z m171 -10 c9 -13 16 -43 16 -70 0 -78 -10 -65
-57 75 -8 25 23 22 41 -5z"/>
<path d="M620 911 c-14 -4 -46 -23 -72 -40 l-48 -32 0 -204 c0 -140 4 -206 11
-211 18 -11 181 -17 253 -10 l66 8 0 208 0 209 -55 36 c-57 38 -111 51 -155
36z m97 -38 c61 -28 89 -117 59 -186 -23 -54 -59 -80 -111 -80 -34 0 -52 6
-71 24 -31 28 -54 77 -54 116 0 44 37 109 73 127 41 20 61 20 104 -1z m88
-339 c0 -17 -11 -19 -134 -22 -132 -3 -159 3 -149 30 4 10 38 13 144 12 129
-2 139 -3 139 -20z"/>
<path d="M612 819 c-56 -60 -21 -169 54 -169 60 0 97 66 74 135 -6 19 -20 40
-30 45 -31 17 -78 12 -98 -11z"/>
<path d="M655 370 l-150 -5 -3 -77 c-3 -74 -2 -78 25 -95 35 -23 219 -26 271
-4 l32 13 0 89 c0 66 -3 88 -12 87 -7 -1 -80 -5 -163 -8z m157 -72 c-9 -9 -53
-13 -147 -13 -94 0 -138 4 -146 13 -10 10 19 12 146 12 127 0 157 -2 147 -12z
m-79 -59 c75 8 95 -1 44 -18 -53 -19 -139 -23 -191 -9 -76 20 -69 35 11 27 38
-4 99 -4 136 0z"/>
<path d="M180 260 l-55 -7 45 -1 c25 -1 96 -5 158 -9 100 -5 112 -4 112 10 0
15 -13 17 -102 15 -57 -1 -128 -4 -158 -8z"/>
<path d="M900 253 c0 -14 12 -15 113 -10 61 4 132 8 157 8 43 2 42 2 -15 9
-33 4 -104 8 -157 9 -85 1 -98 -1 -98 -16z"/>
<path d="M45 181 c-31 -4 30 -9 163 -14 208 -7 232 -6 232 14 0 10 -311 10
-395 0z"/>
<path d="M900 181 c0 -20 24 -21 232 -14 152 5 197 9 158 14 -86 11 -390 10
-390 0z"/>
<path d="M116 102 c-3 -5 122 -12 278 -16 314 -7 838 2 830 16 -7 11 -1101 11
-1108 0z"/>
<path d="M360 21 c-63 -6 -61 -6 50 -13 147 -10 372 -10 520 -1 l115 8 -70 6
c-86 8 -526 8 -615 0z"/>
</g>
</svg>
