<?xml version="1.0" standalone="no"?>
<!DOCTYPE svg PUBLIC "-//W3C//DTD SVG 20010904//EN"
 "http://www.w3.org/TR/2001/REC-SVG-20010904/DTD/svg10.dtd">
<svg version="1.0" xmlns="http://www.w3.org/2000/svg"
 width="1408.000000pt" height="1391.000000pt" viewBox="0 0 1408.000000 1391.000000"
 preserveAspectRatio="xMidYMid meet">

<g transform="translate(0.000000,1391.000000) scale(0.100000,-0.100000)"
fill="#000000" stroke="none">
<path d="M6860 13908 c-107 -1113 -186 -1994 -179 -1998 12 -8 409 -43 415
-37 4 4 119 1186 134 1366 1 16 55 -84 400 -729 210 -393 385 -718 388 -722 7
-7 414 -50 420 -44 4 5 190 1991 186 1995 -7 8 -425 44 -431 37 -6 -6 -102
-984 -103 -1048 0 -16 -4 -28 -9 -28 -4 0 -137 253 -295 563 -158 309 -290
567 -294 574 -5 7 -107 21 -282 37 -151 14 -292 28 -312 31 -21 3 -38 4 -38 3z"/>
<path d="M4960 13523 c-415 -135 -756 -246 -757 -247 -2 -1 594 -1835 613
-1887 l9 -25 758 247 c417 135 760 249 763 252 6 5 -115 387 -123 387 -2 0
-240 -77 -529 -171 -289 -94 -528 -168 -531 -166 -9 10 -133 391 -128 395 3 3
195 67 427 143 233 76 422 142 422 146 -5 31 -116 363 -122 363 -4 0 -194 -61
-423 -135 -229 -74 -421 -135 -425 -135 -11 1 -120 337 -113 345 5 4 318 107
1010 331 l46 15 -62 191 c-34 106 -66 193 -71 194 -5 2 -349 -108 -764 -243z"/>
<path d="M10530 12755 c-68 -90 -126 -167 -127 -172 -2 -4 100 -87 227 -183
126 -96 227 -180 225 -186 -2 -6 -215 -286 -474 -622 -259 -336 -471 -614
-471 -619 1 -9 350 -280 373 -289 9 -3 168 195 492 615 l478 620 81 -62 c394
-306 386 -301 401 -281 7 11 67 89 133 174 66 85 120 155 119 156 -1 1 -298
229 -659 508 -362 278 -661 506 -665 506 -4 -1 -64 -75 -133 -165z"/>
<path d="M2968 12345 c-135 -26 -307 -103 -417 -186 -30 -23 -187 -156 -349
-297 l-293 -255 29 -31 c21 -23 786 -905 1282 -1479 6 -7 512 424 623 531 149
144 252 327 292 518 21 99 22 284 1 379 -51 241 -186 457 -381 613 -99 78
-271 164 -385 192 -112 28 -299 35 -402 15z m276 -464 c192 -67 382 -271 441
-476 13 -44 16 -82 13 -152 -5 -82 -10 -103 -41 -166 -45 -90 -99 -154 -207
-248 -47 -40 -95 -81 -106 -91 -21 -19 -22 -18 -375 389 -195 224 -367 422
-383 441 l-28 32 48 43 c187 165 269 218 377 242 78 18 183 12 261 -14z"/>
<path d="M11775 10655 c-473 -278 -860 -507 -860 -509 0 -10 240 -416 247
-416 3 0 149 84 323 186 184 107 321 182 326 177 12 -12 369 -623 369 -631 0
-4 -142 -90 -316 -192 -173 -101 -317 -187 -319 -190 -2 -4 50 -100 117 -214
116 -198 122 -206 142 -193 11 7 400 235 864 507 463 271 842 497 842 502 0
13 -233 408 -241 408 -4 0 -161 -91 -350 -201 -189 -111 -347 -203 -350 -205
-11 -6 -382 637 -373 646 5 4 158 95 339 200 182 106 336 198 343 205 11 10
-10 51 -106 216 -66 112 -124 204 -128 206 -5 1 -396 -225 -869 -502z"/>
<path d="M1200 10587 c-69 -111 -125 -205 -125 -209 0 -4 380 -244 845 -533
465 -290 847 -528 850 -530 10 -6 262 407 253 415 -8 8 -1605 1004 -1668 1041
l-30 17 -125 -201z"/>
<path d="M6643 9988 c-535 -144 -973 -265 -973 -270 0 -9 1 -10 75 -27 193
-45 398 -237 470 -441 31 -87 957 -3557 983 -3680 33 -164 38 -445 9 -550 -55
-196 -184 -337 -400 -441 -124 -59 -221 -82 -352 -82 -159 0 -287 40 -412 132
-59 43 -64 71 -21 119 44 49 84 132 104 219 24 102 15 284 -19 381 -67 193
-202 327 -391 389 -111 36 -264 38 -380 5 -136 -39 -229 -94 -332 -196 -78
-78 -98 -104 -137 -186 -73 -151 -82 -196 -81 -405 0 -166 2 -187 27 -270 63
-208 172 -381 339 -541 234 -222 540 -361 908 -410 229 -30 538 -14 790 42
276 62 602 201 800 341 125 89 314 274 406 395 131 174 189 283 353 658 146
334 200 445 244 502 40 52 38 57 -30 76 -124 36 -252 207 -334 449 -54 160
-899 3331 -910 3414 -11 87 0 197 28 291 33 111 119 250 189 303 31 24 45 46
27 44 -5 0 -446 -118 -980 -261z"/>
<path d="M7887 10149 c-157 -83 -248 -338 -204 -574 26 -137 864 -3245 900
-3337 51 -128 101 -211 173 -287 64 -68 148 -122 212 -136 17 -3 32 -8 32 -10
0 -2 -13 -23 -29 -47 -34 -51 -62 -111 -141 -309 -151 -376 -313 -725 -410
-884 -22 -36 -36 -65 -32 -65 15 0 178 174 234 250 121 163 199 306 311 575
106 255 172 401 213 469 19 32 31 62 27 66 -4 4 -28 12 -53 19 -164 47 -298
187 -385 405 -36 87 -884 3233 -912 3381 -18 95 -13 244 11 322 9 29 36 82 60
118 24 36 41 65 38 65 -4 -1 -24 -10 -45 -21z"/>
<path d="M446 9279 c-21 -127 -36 -232 -34 -233 1 -2 287 -130 634 -285 648
-291 662 -297 654 -304 -3 -3 -309 -37 -680 -76 -371 -39 -689 -73 -705 -76
l-30 -5 -42 -252 c-23 -139 -40 -254 -39 -256 3 -3 1140 -522 1253 -572 25
-11 44 -23 41 -25 -3 -3 -319 -26 -703 -50 -384 -25 -702 -48 -705 -52 -12
-13 -85 -482 -77 -490 6 -5 2046 144 2053 151 1 0 21 116 43 256 23 140 43
263 46 274 3 15 -51 45 -333 183 -827 405 -946 465 -937 469 6 2 322 40 704
84 382 43 696 81 698 84 5 4 93 539 90 542 -7 5 -1884 864 -1888 864 -2 0 -22
-104 -43 -231z"/>
<path d="M12876 8434 c-538 -68 -981 -126 -984 -129 -4 -4 186 -1580 192
-1592 2 -2 401 49 404 52 2 2 -26 243 -63 537 -36 293 -67 542 -68 553 -2 18
12 21 206 45 115 15 210 24 211 21 2 -3 28 -201 57 -439 30 -239 56 -438 59
-443 5 -8 375 33 385 43 2 1 -21 197 -51 433 -29 237 -54 437 -54 446 0 13 32
19 176 37 97 13 179 20 182 17 3 -3 37 -251 74 -552 38 -301 70 -548 71 -549
1 0 93 10 205 24 l202 25 -5 31 c-3 17 -46 360 -95 761 -105 850 -98 805 -113
804 -7 -1 -452 -57 -991 -125z"/>
<path d="M9000 6720 l0 -40 50 0 50 0 0 -136 0 -135 43 3 42 3 3 133 3 132 49
0 50 0 0 40 0 40 -145 0 -145 0 0 -40z"/>
<path d="M9340 6585 l0 -175 35 0 35 0 0 122 c0 67 3 118 6 115 4 -4 23 -57
43 -119 33 -102 39 -113 61 -113 21 0 27 11 61 120 l38 120 3 -120 3 -120 43
-3 42 -3 0 176 0 176 -62 -3 c-56 -3 -62 -5 -69 -28 -4 -14 -18 -59 -29 -99
-25 -86 -27 -84 -60 42 l-23 87 -64 0 -63 0 0 -175z"/>
<path d="M6117 5792 c137 -110 233 -262 284 -452 32 -119 32 -338 1 -454 -12
-44 -22 -83 -22 -88 0 -15 67 -38 110 -38 48 0 53 9 77 135 20 106 13 291 -17
395 -46 164 -153 335 -268 426 -49 39 -185 114 -206 114 -4 0 14 -17 41 -38z"/>
<path d="M12766 5585 c-90 -32 -136 -95 -136 -188 0 -109 61 -181 171 -202
110 -20 229 84 229 200 0 83 -68 172 -147 194 -49 14 -69 13 -117 -4z"/>
<path d="M1312 5568 c-83 -18 -152 -111 -152 -203 1 -69 60 -149 132 -179 105
-44 230 17 263 128 46 154 -84 290 -243 254z"/>
<path d="M10880 3819 c-278 -336 -505 -616 -505 -622 0 -12 1522 -1277 1536
-1277 5 0 980 1171 1020 1225 6 9 -292 266 -309 264 -4 0 -164 -191 -357 -424
-192 -234 -354 -425 -358 -425 -5 0 -80 59 -167 132 l-159 132 63 75 c34 42
163 197 285 344 122 148 221 272 219 277 -2 5 -68 64 -148 130 l-145 121 -32
-38 c-18 -21 -146 -176 -285 -345 -153 -185 -258 -305 -266 -302 -18 5 -272
216 -272 225 0 4 156 195 346 424 190 230 348 423 350 429 4 10 -280 256 -304
263 -4 1 -234 -272 -512 -608z"/>
<path d="M2404 4216 c-226 -37 -435 -146 -604 -316 -145 -144 -240 -309 -291
-506 -34 -128 -34 -349 0 -479 28 -110 112 -289 174 -371 113 -149 277 -281
434 -349 222 -96 480 -111 703 -43 85 26 201 79 198 89 -2 4 -68 87 -147 183
l-143 174 -42 -15 c-24 -9 -88 -17 -156 -20 -102 -4 -123 -2 -192 20 -182 58
-329 206 -382 386 -20 69 -21 199 -1 274 33 128 127 266 242 358 270 215 569
213 788 -6 183 -182 222 -417 110 -650 l-35 -74 151 -184 152 -184 28 32 c16
18 53 71 83 119 247 393 171 902 -189 1261 -146 146 -297 234 -484 281 -119
31 -283 39 -397 20z"/>
<path d="M4187 2888 c-19 -29 -262 -404 -542 -833 -279 -429 -508 -785 -509
-792 0 -6 89 -70 199 -141 177 -116 201 -129 211 -114 22 32 1047 1607 1066
1638 l18 31 -196 129 c-109 71 -201 130 -205 132 -4 2 -23 -21 -42 -50z"/>
<path d="M9145 2450 c-110 -64 -199 -122 -198 -127 1 -7 977 -1698 998 -1731
2 -2 1315 756 1327 767 9 8 -206 377 -218 374 -5 -1 -209 -117 -453 -259 -369
-214 -445 -254 -455 -243 -7 8 -185 312 -396 677 -211 364 -388 662 -394 661
-6 -1 -101 -54 -211 -119z"/>
<path d="M4880 2454 c0 -2 -124 -432 -275 -954 -151 -523 -275 -956 -275 -963
0 -7 87 -37 223 -76 122 -35 227 -65 232 -67 6 -2 57 160 115 361 73 254 109
365 118 365 8 0 133 -35 279 -77 292 -84 322 -99 369 -180 43 -73 45 -181 5
-397 -30 -160 -37 -256 -25 -302 5 -18 41 -31 240 -88 130 -38 237 -66 240
-64 2 3 0 26 -5 53 -10 53 -5 101 30 275 30 150 32 346 5 435 -26 88 -52 133
-112 195 l-53 56 78 12 c167 24 292 114 364 262 49 100 68 178 68 280 1 191
-88 332 -288 453 -104 64 -245 112 -748 257 -269 78 -511 148 -537 155 -27 8
-48 12 -48 9z m680 -605 c302 -86 367 -113 408 -167 34 -44 42 -137 18 -209
-30 -91 -113 -162 -191 -163 -25 0 -660 176 -674 187 -5 3 21 98 86 321 29 98
39 122 52 118 9 -3 144 -42 301 -87z"/>
<path d="M7795 2129 c-564 -76 -935 -489 -935 -1037 0 -384 201 -751 512 -933
304 -178 693 -188 1018 -24 103 52 153 87 239 169 169 163 268 345 306 563 22
126 21 136 -12 129 -16 -3 -119 -17 -229 -32 l-202 -27 -26 -79 c-44 -133
-116 -230 -224 -301 -316 -208 -701 -85 -840 269 -50 127 -67 331 -37 449 49
193 186 340 370 398 101 31 263 31 357 -1 124 -43 249 -152 319 -280 l16 -29
94 13 c52 7 154 21 226 30 73 10 138 21 143 24 7 5 2 30 -15 76 -120 320 -388
545 -725 610 -98 19 -267 25 -355 13z"/>
</g>
</svg>
