<?xml version="1.0" standalone="no"?>
<!DOCTYPE svg PUBLIC "-//W3C//DTD SVG 20010904//EN"
 "http://www.w3.org/TR/2001/REC-SVG-20010904/DTD/svg10.dtd">
<svg version="1.0" xmlns="http://www.w3.org/2000/svg"
 width="500.000000pt" height="500.000000pt" viewBox="0 0 500.000000 500.000000"
 preserveAspectRatio="xMidYMid meet">

<g transform="translate(0.000000,500.000000) scale(0.100000,-0.100000)"
fill="#14402B" stroke="none">
<path d="M2452 4858 c-6 -8 -16 -72 -22 -143 -6 -72 -17 -191 -25 -265 -8 -74
-18 -160 -21 -191 l-6 -56 32 -7 c44 -8 98 -8 104 2 2 4 11 95 20 202 9 107
19 205 21 218 8 34 29 26 51 -20 12 -24 67 -130 124 -236 112 -211 116 -215
199 -210 l46 3 22 230 c12 127 23 275 25 330 l3 100 -53 9 c-37 6 -56 6 -64
-2 -6 -6 -18 -88 -26 -182 -10 -114 -19 -170 -27 -170 -6 0 -51 78 -100 173
-48 94 -94 180 -102 189 -8 9 -37 19 -66 23 -29 3 -68 8 -88 11 -23 3 -39 0
-47 -8z"/>
<path d="M1810 4745 c-118 -41 -222 -74 -231 -75 -42 -1 -39 -22 27 -225 35
-110 80 -251 100 -312 19 -62 39 -113 44 -113 5 0 112 34 237 75 125 41 233
75 240 75 6 0 15 5 18 10 8 13 -13 108 -26 116 -5 3 -85 -20 -178 -50 -92 -31
-173 -56 -179 -56 -11 0 -57 138 -49 146 2 2 64 24 138 48 73 24 135 48 137
54 6 19 -19 93 -33 99 -8 3 -68 -13 -133 -36 -66 -23 -128 -41 -140 -41 -16 0
-24 11 -37 56 -10 36 -13 60 -7 66 6 6 83 34 173 62 l164 53 -2 32 c-2 41 -22
91 -37 90 -6 0 -108 -34 -226 -74z"/>
<path d="M3701 4483 c-17 -21 -31 -46 -31 -55 0 -11 27 -37 65 -65 36 -26 65
-54 65 -63 0 -21 -48 -89 -188 -267 -62 -78 -112 -149 -112 -157 0 -14 89 -86
108 -86 5 0 45 46 88 103 126 165 236 302 245 305 5 2 39 -21 75 -52 36 -31
72 -56 79 -56 16 0 75 78 75 99 -1 9 -22 31 -48 50 -54 39 -215 163 -305 234
-33 26 -66 47 -73 47 -7 0 -26 -17 -43 -37z"/>
<path d="M1093 4331 c-59 -15 -122 -55 -228 -145 -58 -49 -105 -92 -105 -96 0
-7 57 -73 230 -271 47 -53 108 -124 135 -157 28 -33 56 -63 64 -66 14 -7 80
45 190 149 108 101 146 210 117 326 -29 113 -98 194 -202 241 -52 22 -150 32
-201 19z m132 -150 c103 -48 162 -171 125 -266 -14 -37 -98 -125 -120 -125 -8
0 -34 24 -57 53 -23 28 -78 95 -123 147 -44 52 -80 99 -80 105 0 15 72 72 113
90 44 19 94 18 142 -4z"/>
<path d="M4255 3837 c-77 -46 -196 -116 -265 -156 -69 -40 -131 -79 -139 -86
-11 -11 -8 -22 21 -71 23 -39 40 -58 51 -56 9 2 57 28 107 58 71 43 94 53 104
44 8 -6 40 -54 71 -107 42 -70 55 -100 49 -111 -6 -8 -50 -38 -99 -66 -50 -29
-91 -59 -93 -67 -3 -18 46 -109 63 -115 7 -3 41 13 76 34 35 22 120 72 189
112 69 40 141 83 160 95 20 13 60 35 88 49 29 15 55 33 58 41 5 13 -59 125
-73 125 -3 0 -38 -20 -77 -44 -119 -73 -156 -90 -165 -80 -23 24 -122 208
-118 219 5 10 85 61 186 117 17 9 31 25 31 35 0 25 -57 113 -73 113 -6 0 -75
-38 -152 -83z"/>
<path d="M510 3743 c-16 -27 -30 -56 -30 -65 0 -10 20 -29 48 -45 26 -15 150
-92 275 -170 126 -79 230 -143 232 -143 10 0 75 106 75 121 0 9 -7 19 -15 23
-8 3 -130 78 -271 166 -141 88 -263 160 -270 160 -8 0 -27 -21 -44 -47z"/>
<path d="M261 3338 c-4 -13 -11 -42 -14 -65 -6 -53 0 -59 133 -116 216 -93
285 -126 288 -140 3 -14 -72 -25 -331 -48 -60 -5 -117 -13 -126 -19 -11 -6
-22 -31 -30 -66 -18 -94 -19 -92 67 -130 243 -110 342 -159 342 -169 0 -8 -39
-14 -117 -19 -295 -18 -333 -22 -342 -31 -6 -6 -15 -39 -19 -74 -7 -50 -6 -64
5 -68 8 -3 138 4 291 16 152 12 298 21 323 21 26 0 51 6 57 13 14 16 36 153
27 167 -3 5 -99 55 -211 110 -130 63 -204 105 -202 112 5 14 31 18 292 47 112
12 171 23 176 32 13 20 24 159 14 168 -5 4 -38 20 -74 36 -36 15 -157 71 -270
123 -297 137 -269 127 -279 100z"/>
<path d="M4790 3034 c-8 -2 -71 -11 -140 -18 -502 -58 -470 -53 -477 -73 -3
-8 6 -113 21 -232 39 -309 31 -281 76 -281 61 0 92 15 85 43 -3 12 -14 91 -24
176 -14 125 -15 155 -5 166 16 16 123 30 136 17 5 -5 16 -69 24 -142 8 -74 20
-140 26 -147 11 -13 36 -12 91 3 22 7 22 40 1 179 -8 59 -13 113 -10 120 6 16
113 32 126 19 5 -5 18 -87 29 -182 11 -95 23 -176 25 -181 6 -10 106 5 118 17
5 5 4 39 -3 78 -6 38 -21 152 -33 254 -22 190 -24 195 -66 184z"/>
<path d="M4436 2014 c-23 -22 -21 -81 3 -94 49 -26 101 1 101 52 0 46 -71 75
-104 42z"/>
<path d="M522 2004 c-45 -31 -17 -104 41 -104 28 0 57 32 57 62 0 23 -35 58
-58 58 -10 0 -28 -7 -40 -16z"/>
<path d="M3822 1426 c-89 -107 -162 -201 -162 -208 0 -7 44 -49 97 -93 53 -44
167 -138 252 -209 l156 -129 32 39 c17 21 93 112 168 202 75 90 134 169 131
177 -8 22 -75 68 -90 62 -8 -3 -56 -59 -108 -124 -52 -65 -104 -126 -116 -137
-21 -18 -22 -18 -77 29 -30 26 -55 51 -55 55 0 4 41 55 90 113 50 59 90 113
90 119 0 16 -64 68 -83 68 -7 0 -41 -35 -75 -77 -112 -141 -118 -147 -134
-137 -22 13 -73 57 -81 71 -7 11 119 178 195 260 22 22 28 35 21 47 -9 16 -72
66 -83 66 -4 0 -80 -87 -168 -194z"/>
<path d="M873 1546 c-105 -34 -196 -116 -240 -214 -32 -74 -34 -173 -3 -254
45 -121 176 -218 305 -226 66 -4 175 20 175 39 0 6 -18 32 -41 57 l-40 46 -74
1 c-65 0 -78 3 -117 30 -51 36 -88 103 -88 160 0 82 66 178 147 212 42 17 137
17 171 -1 60 -31 112 -112 112 -174 0 -16 -7 -49 -16 -75 l-16 -47 39 -47 c61
-76 60 -76 101 0 24 46 27 63 27 147 0 89 -2 99 -34 158 -39 72 -109 139 -178
172 -59 28 -169 36 -230 16z"/>
<path d="M1360 843 c-95 -147 -173 -274 -174 -281 -1 -17 81 -80 104 -81 8 0
48 51 91 117 42 64 120 184 173 265 53 81 99 154 102 161 5 14 -88 86 -111 86
-6 0 -89 -120 -185 -267z"/>
<path d="M3232 959 c-61 -36 -71 -52 -52 -83 8 -11 81 -136 162 -276 82 -140
153 -256 158 -258 5 -2 53 23 107 56 54 32 149 87 211 122 62 36 112 71 112
79 0 17 -48 101 -57 101 -4 0 -70 -36 -148 -80 -78 -44 -148 -80 -156 -80 -15
0 -26 17 -165 260 -45 80 -91 155 -101 167 l-18 23 -53 -31z"/>
<path d="M1765 940 c-4 -6 -46 -149 -95 -318 -73 -254 -86 -309 -74 -318 7 -6
39 -16 70 -23 46 -11 58 -11 64 0 5 7 21 59 36 117 15 57 33 106 40 109 12 5
169 -38 202 -56 36 -19 46 -64 34 -149 -19 -121 -20 -118 43 -141 87 -33 91
-31 101 42 4 34 8 92 9 128 0 57 -4 70 -28 102 l-28 37 26 10 c15 6 30 10 35
10 18 0 83 66 96 97 18 42 18 107 0 141 -35 67 -96 98 -338 171 -182 55 -184
56 -193 41z m250 -185 c117 -34 135 -47 135 -101 0 -48 -34 -84 -78 -84 -45 0
-232 58 -232 72 0 19 32 123 43 136 5 7 17 10 26 7 9 -2 56 -16 106 -30z"/>
<path d="M2725 837 c-120 -31 -204 -98 -252 -203 -22 -49 -24 -66 -21 -147 3
-80 7 -101 36 -159 61 -123 169 -192 302 -191 98 1 173 29 241 91 55 50 109
145 109 195 0 26 -2 27 -49 27 -68 0 -79 -6 -105 -59 -30 -59 -60 -86 -115
-106 -55 -19 -92 -19 -139 0 -77 33 -122 102 -130 202 -4 53 -1 70 21 116 61
124 236 142 323 33 31 -38 43 -41 128 -30 30 4 46 12 46 21 0 29 -41 92 -88
134 -79 72 -203 102 -307 76z"/>
</g>
</svg>
