<?xml version="1.0" standalone="no"?>
<!DOCTYPE svg PUBLIC "-//W3C//DTD SVG 20010904//EN"
 "http://www.w3.org/TR/2001/REC-SVG-20010904/DTD/svg10.dtd">
<svg version="1.0" xmlns="http://www.w3.org/2000/svg"
 width="650.000000pt" height="327.000000pt" viewBox="0 0 650.000000 327.000000"
 preserveAspectRatio="xMidYMid meet">

<g transform="translate(0.000000,327.000000) scale(0.100000,-0.100000)"
fill="#14402B" stroke="none">
<path d="M2888 2853 l-38 -4 23 -31 c22 -30 22 -31 22 -442 l-1 -412 -25 -52
-26 -52 313 0 313 0 5 33 c3 17 8 55 11 82 4 28 9 66 12 85 l5 35 -30 -28
c-44 -42 -110 -58 -232 -56 -58 2 -111 5 -117 7 -19 6 -18 275 0 291 9 7 38 9
78 6 97 -8 118 -14 155 -47 l34 -30 1 103 c0 57 1 121 3 142 2 20 2 37 0 37
-2 0 -14 -11 -27 -24 -30 -30 -69 -38 -172 -34 l-80 3 1 60 c0 33 1 93 2 133
l2 72 129 0 c143 0 171 -7 219 -53 l32 -31 0 101 0 100 -77 7 c-79 6 -469 6
-535 -1z"/>
<path d="M2440 2829 c-46 -5 -88 -13 -91 -17 -6 -5 -115 -370 -166 -554 -3
-10 -9 -18 -13 -18 -7 0 -87 137 -225 388 -38 67 -72 125 -76 128 -8 5 -269
-35 -278 -42 -2 -2 10 -15 27 -29 59 -49 69 -89 117 -440 46 -333 54 -450 34
-487 -11 -20 -9 -21 27 -15 22 4 76 12 122 19 45 7 82 15 82 18 0 4 -9 15 -21
26 -44 40 -60 92 -94 322 -30 202 -34 246 -22 231 2 -2 48 -85 102 -184 182
-336 207 -378 215 -364 4 8 49 156 101 329 51 173 94 317 96 319 10 13 15 -26
28 -205 22 -295 20 -321 -20 -418 -8 -17 -5 -19 26 -12 18 3 87 9 151 13 65 3
118 9 118 12 0 4 -6 16 -14 27 -19 26 -34 86 -40 159 -18 204 -47 686 -43 718
3 22 16 50 28 63 l22 24 -54 -1 c-30 -1 -92 -6 -139 -10z"/>
<path d="M3919 2825 c-71 -23 -140 -74 -173 -129 -24 -38 -31 -63 -34 -116 -8
-130 35 -194 200 -303 129 -85 157 -111 167 -159 20 -93 -44 -179 -136 -178
-68 1 -185 87 -245 179 -28 45 -28 45 -29 15 -1 -16 -4 -89 -8 -162 -5 -115
-4 -131 9 -125 40 18 98 14 156 -10 85 -35 149 -42 226 -23 211 54 319 268
228 452 -34 69 -78 107 -225 192 -112 64 -147 115 -121 175 24 56 50 72 121
71 78 -1 135 -31 197 -105 l43 -51 6 31 c4 18 10 72 13 121 l7 90 -44 0 c-24
0 -70 9 -103 21 -78 27 -195 34 -255 14z"/>
<path d="M4820 2695 c-123 -35 -217 -120 -286 -259 -95 -192 -109 -429 -34
-576 48 -95 152 -167 274 -192 109 -21 248 23 339 110 56 53 121 165 154 265
80 238 44 473 -89 578 -95 75 -244 105 -358 74z m174 -139 c81 -34 109 -137
83 -312 -37 -261 -139 -434 -254 -434 -42 0 -94 38 -118 85 -29 59 -27 247 4
364 63 239 167 347 285 297z"/>
<path d="M1073 2605 c-50 -13 -116 -30 -147 -39 l-55 -16 19 -33 c23 -37 25
-93 10 -243 -5 -55 -19 -228 -29 -385 -18 -261 -25 -310 -56 -382 -5 -12 -3
-16 6 -13 8 3 61 19 119 36 148 44 138 40 117 51 -39 22 -52 78 -49 207 2 73
-8 65 160 110 l109 28 42 -83 c42 -85 51 -136 30 -175 -6 -11 -9 -21 -7 -23 2
-2 45 7 97 20 51 13 123 29 160 36 36 7 67 13 68 14 2 1 -16 22 -40 47 -28 30
-107 165 -241 412 -173 320 -199 373 -199 412 0 26 -5 44 -11 43 -6 -1 -52
-11 -103 -24z m67 -395 c46 -94 71 -153 65 -159 -9 -7 -160 -51 -179 -51 -4 0
-5 3 -3 8 3 4 8 63 11 132 8 147 16 220 25 220 4 0 40 -67 81 -150z"/>
<path d="M5525 2522 c18 -42 26 -101 21 -142 -4 -25 -53 -190 -110 -367 -108
-337 -130 -385 -188 -407 -30 -11 -38 -26 -13 -26 13 0 134 -34 238 -66 16 -5
17 -3 8 14 -27 50 -13 128 61 353 40 120 75 219 79 219 3 0 32 -127 63 -282
92 -464 74 -407 132 -429 79 -31 81 -31 89 -12 4 10 65 191 137 403 72 212
137 398 145 413 8 15 30 43 50 62 l36 34 -29 11 c-16 7 -68 26 -115 44 l-86
33 4 -71 c4 -67 0 -83 -66 -275 -39 -112 -72 -205 -74 -207 -2 -2 -9 26 -16
63 -7 38 -38 183 -69 323 l-57 255 -55 18 c-30 10 -86 26 -123 37 -64 18 -68
18 -62 2z"/>
<path d="M348 2391 c-75 -26 -140 -49 -143 -52 -3 -3 6 -11 18 -18 13 -7 31
-25 39 -39 28 -47 188 -643 188 -699 0 -61 -30 -105 -86 -123 -68 -23 -137 7
-115 49 16 29 13 83 -5 110 -9 13 -32 30 -51 37 -31 13 -38 13 -79 -5 -73 -32
-94 -113 -53 -198 66 -136 285 -166 449 -62 54 33 79 65 120 151 17 35 37 76
45 91 13 24 13 29 -1 34 -29 11 -55 86 -129 376 -76 296 -84 342 -65 378 6 10
9 19 8 18 -2 0 -65 -22 -140 -48z"/>
<path d="M6343 2124 c-42 -21 -57 -64 -39 -109 26 -62 89 -74 137 -26 36 36
38 79 7 115 -30 33 -65 40 -105 20z m92 -24 c24 -26 23 -76 -1 -100 -46 -45
-124 -15 -124 48 0 63 84 97 125 52z"/>
<path d="M6357 2073 c-3 -16 -9 -36 -12 -45 -4 -10 -3 -18 2 -18 8 0 33 63 33
84 0 19 -18 2 -23 -21z"/>
<path d="M6400 2073 c0 -12 -4 -23 -10 -25 -12 -4 -1 -48 12 -48 5 0 6 5 2 11
-3 6 -1 22 7 35 10 19 10 27 1 36 -9 9 -12 7 -12 -9z"/>
<path d="M1615 840 c-97 -14 -150 -81 -126 -160 14 -48 53 -74 136 -90 105
-20 125 -29 125 -56 0 -37 -40 -57 -102 -52 -42 4 -57 11 -80 37 -21 23 -36
31 -62 31 -44 0 -49 -9 -28 -51 20 -40 69 -75 126 -90 52 -14 144 1 186 31 63
45 60 154 -6 192 -17 10 -65 24 -108 33 -84 16 -106 27 -106 55 0 29 29 44 82
45 43 0 53 -4 72 -27 17 -22 30 -28 59 -28 31 0 37 4 37 20 0 70 -103 124
-205 110z"/>
<path d="M4174 826 c-48 -21 -74 -61 -74 -114 0 -38 5 -49 35 -77 22 -21 50
-36 77 -41 24 -4 45 -8 48 -9 3 -1 24 -5 47 -9 53 -10 70 -28 55 -61 -22 -49
-135 -45 -183 6 -20 22 -36 29 -63 29 -38 0 -41 -5 -27 -43 44 -115 262 -141
340 -41 21 26 29 93 15 128 -11 28 -67 54 -153 70 -90 17 -111 28 -111 56 0
56 141 63 171 9 11 -22 89 -28 89 -6 0 23 -40 77 -72 97 -39 24 -145 27 -194
6z"/>
<path d="M482 623 l3 -208 45 0 45 0 3 208 2 207 -51 0 -51 0 4 -207z"/>
<path d="M732 623 l3 -208 47 -3 47 -3 3 83 3 83 69 -1 c83 -1 100 -16 109
-94 3 -28 9 -55 12 -60 3 -6 27 -10 51 -10 44 0 45 1 40 28 -3 15 -8 46 -11
70 -5 27 -18 56 -36 77 -29 32 -29 34 -9 40 48 15 68 101 36 150 -30 45 -71
55 -226 55 l-141 0 3 -207z m241 130 c38 -7 54 -46 32 -80 -15 -22 -21 -24
-93 -21 l-77 3 -3 39 c-5 60 1 66 60 65 29 -1 66 -3 81 -6z"/>
<path d="M1252 623 l3 -208 45 0 45 0 3 208 2 207 -50 0 -50 0 2 -207z"/>
<path d="M1950 619 l0 -210 48 3 47 3 1 50 c0 28 1 62 2 78 l2 27 80 0 79 0 3
-77 3 -78 45 0 45 0 3 208 2 207 -50 0 -50 0 0 -85 0 -86 -82 3 -81 3 2 83 2
82 -50 0 -51 0 0 -211z"/>
<path d="M2634 813 c3 -10 21 -87 41 -172 20 -85 42 -170 48 -190 12 -36 13
-36 67 -36 l55 0 40 137 c23 76 44 140 47 143 6 6 18 -29 59 -180 11 -44 26
-86 31 -92 14 -17 93 -17 107 0 6 8 22 58 36 113 15 54 37 138 51 186 13 48
24 92 24 97 0 6 -20 11 -44 11 -33 0 -45 -4 -48 -17 -3 -10 -20 -73 -38 -140
-18 -68 -35 -123 -39 -123 -4 0 -20 48 -35 108 -16 59 -33 122 -38 140 -9 31
-11 32 -62 32 l-53 0 -20 -72 c-12 -40 -29 -104 -38 -141 -10 -37 -21 -64 -25
-60 -4 4 -20 60 -34 123 -15 63 -29 123 -32 133 -4 13 -16 17 -55 17 -43 0
-50 -2 -45 -17z"/>
<path d="M3352 623 l3 -208 47 -3 47 -3 3 78 3 78 80 0 80 0 0 -75 0 -75 48
-3 47 -3 0 210 0 211 -45 0 -45 0 -1 -77 c-1 -43 -1 -82 0 -86 1 -4 -36 -7
-81 -5 l-83 3 -3 83 -3 82 -50 0 -49 0 2 -207z"/>
<path d="M3870 630 c0 -110 -1 -203 -2 -207 -2 -5 18 -9 45 -11 l47 -3 0 210
0 211 -45 0 -45 0 0 -200z"/>
<path d="M4559 688 c0 -79 -1 -172 -1 -208 l0 -65 48 0 48 0 -3 60 c-2 57 0
62 33 94 19 18 39 31 44 27 5 -3 29 -38 52 -78 60 -103 66 -108 117 -108 23 0
43 4 43 9 0 5 -31 61 -70 125 -38 64 -70 122 -69 129 0 6 35 44 78 82 l78 70
-65 3 -66 3 -81 -81 c-44 -44 -84 -77 -88 -74 -4 4 -7 40 -7 81 l0 73 -45 0
-45 0 -1 -142z"/>
<path d="M5042 623 l3 -208 165 0 165 0 3 38 3 37 -68 2 c-37 1 -90 3 -118 4
l-50 1 -3 46 -3 47 95 0 96 0 0 40 0 40 -95 0 -95 0 0 40 0 39 118 3 117 3 3
38 3 37 -171 0 -170 0 2 -207z"/>
<path d="M5456 818 c5 -7 38 -61 76 -120 l67 -108 3 -87 3 -88 45 0 45 0 5 95
5 95 72 113 72 113 -46 -3 c-46 -3 -47 -4 -91 -75 -24 -40 -47 -73 -52 -73 -5
0 -30 34 -55 75 l-47 75 -55 0 c-41 0 -52 -3 -47 -12z"/>
</g>
</svg>
