<?xml version="1.0" standalone="no"?>
<!DOCTYPE svg PUBLIC "-//W3C//DTD SVG 20010904//EN"
 "http://www.w3.org/TR/2001/REC-SVG-20010904/DTD/svg10.dtd">
<svg version="1.0" xmlns="http://www.w3.org/2000/svg"
 width="185.000000pt" height="185.000000pt" viewBox="0 0 185.000000 185.000000"
 preserveAspectRatio="xMidYMid meet">

<g transform="translate(0.000000,185.000000) scale(0.100000,-0.100000)"
fill="#14402B" stroke="none">
<path d="M860 1765 c-107 -30 -223 -61 -258 -71 l-63 -17 38 -17 c53 -23 100
-80 118 -143 8 -28 71 -263 140 -521 152 -571 156 -605 68 -688 -64 -61 -166
-77 -241 -39 -23 12 -42 23 -42 26 0 2 9 19 20 37 14 23 20 51 20 89 0 183
-236 235 -335 74 -26 -42 -30 -58 -30 -119 1 -150 97 -265 266 -317 85 -27
230 -26 329 2 201 55 308 162 411 409 12 30 31 68 42 83 10 16 18 29 16 31 -2
1 -15 7 -29 13 -49 21 -76 97 -205 576 -69 257 -125 480 -125 497 0 38 24 98
52 127 12 13 17 23 12 22 -5 0 -97 -25 -204 -54z"/>
<path d="M1123 1777 c-31 -32 -44 -91 -33 -146 20 -104 240 -903 259 -939 22
-43 64 -82 89 -82 10 0 12 -4 4 -12 -5 -7 -33 -69 -62 -138 -29 -69 -64 -145
-78 -169 -36 -62 -11 -43 42 32 40 57 150 286 142 295 -2 2 -19 12 -38 21 -22
12 -42 36 -60 72 -33 65 -268 938 -268 995 0 22 7 50 16 62 22 31 12 37 -13 9z"/>
<path d="M1463 849 c13 -7 17 -20 15 -40 -1 -16 2 -30 7 -31 6 -2 11 13 13 32
2 19 9 38 15 42 7 4 -6 8 -28 8 -33 -1 -37 -2 -22 -11z"/>
<path d="M1540 815 c0 -51 20 -63 21 -12 l1 32 12 -35 13 -35 16 35 15 35 1
-32 c1 -51 21 -39 21 12 0 38 -3 45 -20 45 -13 0 -20 -7 -20 -20 0 -11 -4 -20
-10 -20 -5 0 -10 9 -10 20 0 13 -7 20 -20 20 -17 0 -20 -7 -20 -45z"/>
<path d="M660 602 c0 -5 7 -13 15 -16 9 -3 27 -31 41 -61 22 -47 25 -67 22
-127 -2 -53 1 -73 11 -76 41 -14 43 110 4 188 -26 49 -93 116 -93 92z"/>
</g>
</svg>
