<?xml version="1.0" standalone="no"?>
<!DOCTYPE svg PUBLIC "-//W3C//DTD SVG 20010904//EN"
 "http://www.w3.org/TR/2001/REC-SVG-20010904/DTD/svg10.dtd">
<svg version="1.0" xmlns="http://www.w3.org/2000/svg"
 width="212.000000pt" height="184.000000pt" viewBox="0 0 212.000000 184.000000"
 preserveAspectRatio="xMidYMid meet">

<g transform="translate(0.000000,184.000000) scale(0.100000,-0.100000)"
fill="#14402B" stroke="none">
<path d="M1270 1825 c0 -11 7 -89 17 -174 12 -106 21 -155 30 -158 8 -3 16 -3
19 -1 7 7 -47 331 -57 343 -6 5 -9 1 -9 -10z"/>
<path d="M534 1804 c-5 -1 -21 -5 -36 -8 -25 -6 -28 -11 -28 -44 0 -23 12 -58
31 -92 43 -75 185 -213 292 -284 74 -49 92 -57 115 -51 15 4 50 8 77 9 35 1
60 8 83 25 18 12 51 25 72 28 34 5 43 1 69 -24 42 -42 48 -75 22 -118 -21 -36
-15 -43 20 -25 52 29 -1 142 -125 266 -94 94 -159 143 -281 213 -108 62 -267
115 -311 105z"/>
<path d="M1532 1658 c-137 -262 -135 -258 -117 -264 9 -4 17 -5 19 -3 16 17
192 410 186 414 -5 3 -44 -64 -88 -147z"/>
<path d="M205 1319 l-207 -361 17 -52 c40 -122 167 -267 300 -341 112 -63 302
-110 363 -91 24 8 255 313 249 329 -8 26 -28 13 -87 -58 -34 -41 -66 -75 -71
-75 -22 0 -12 24 47 114 53 82 64 106 64 140 0 46 14 64 83 105 38 23 107 104
107 125 0 7 -35 26 -77 44 l-78 32 -25 -20 c-41 -34 -125 -70 -187 -82 -64
-12 -130 -1 -270 43 -95 30 -138 19 -204 -53 -28 -30 -49 -45 -53 -39 -11 17
52 126 104 180 69 72 119 95 208 95 67 -1 80 -5 175 -52 97 -49 158 -64 172
-43 3 6 -5 17 -17 25 -177 122 -305 241 -365 339 -20 31 -37 57 -38 57 -2 0
-96 -162 -210 -361z m104 -473 c110 -85 263 -155 376 -172 35 -5 45 -10 45
-25 0 -16 -8 -19 -48 -19 -153 0 -408 135 -505 267 -90 124 -84 166 10 64 36
-39 91 -91 122 -115z"/>
<path d="M1702 1455 c-85 -35 -155 -65 -157 -67 -2 -2 0 -10 5 -18 7 -11 39 1
164 60 86 40 156 77 156 82 0 13 -7 10 -168 -57z"/>
<path d="M1115 1331 c-11 -5 -29 -18 -39 -30 -14 -15 -31 -21 -65 -21 -54 -1
-43 -10 46 -42 l55 -19 34 23 c42 28 55 65 29 85 -21 15 -31 15 -60 4z"/>
<path d="M402 1285 c-19 -8 -32 -20 -30 -26 7 -20 160 -60 256 -66 97 -6 116
3 65 30 -16 8 -54 28 -87 46 -66 35 -145 41 -204 16z"/>
<path d="M1640 1224 c-241 -62 -662 -227 -646 -253 23 -36 666 181 766 259
l25 20 -25 -1 c-14 0 -68 -11 -120 -25z"/>
<path d="M1755 1159 c-153 -83 -508 -210 -693 -246 -46 -9 -86 -22 -89 -29 -6
-17 345 -856 365 -871 37 -30 223 -5 396 52 132 43 272 114 332 169 l46 41
-122 449 c-66 248 -126 456 -132 463 -15 18 -24 16 -103 -28z m-577 -297 c12
-8 22 -17 22 -21 0 -4 9 -17 21 -30 20 -21 22 -22 47 -5 65 43 134 35 207 -23
34 -27 39 -28 154 -28 105 0 123 -2 147 -21 59 -44 37 -56 -52 -27 -50 15 -57
15 -114 0 -91 -26 -109 -23 -174 28 -32 25 -66 45 -75 45 -9 0 -34 -11 -56
-25 -60 -37 -82 -33 -135 25 -54 58 -80 65 -80 20 0 -71 86 -174 187 -226 51
-25 69 -29 143 -29 70 0 103 7 185 34 83 29 115 35 190 35 115 1 147 -15 192
-99 18 -33 33 -68 33 -77 0 -34 -30 -18 -63 35 -19 28 -41 58 -50 65 -9 7 -49
16 -90 19 -65 5 -88 1 -202 -32 -111 -32 -138 -37 -209 -33 -66 2 -93 9 -135
31 -30 15 -56 25 -59 23 -2 -3 14 -48 37 -100 41 -93 81 -201 81 -218 0 -4 -7
-8 -15 -8 -14 0 -238 439 -264 519 -37 112 35 183 127 123z m842 -481 c0 -33
-167 -124 -326 -177 -176 -59 -354 -84 -354 -49 0 8 4 15 9 15 4 0 47 7 95 15
115 20 338 95 461 155 108 52 115 55 115 41z"/>
<path d="M1125 1130 c-10 -11 -15 -20 -11 -20 12 0 76 29 76 34 0 15 -49 4
-65 -14z"/>
</g>
</svg>
