<?xml version="1.0" standalone="no"?>
<!DOCTYPE svg PUBLIC "-//W3C//DTD SVG 20010904//EN"
 "http://www.w3.org/TR/2001/REC-SVG-20010904/DTD/svg10.dtd">
<svg version="1.0" xmlns="http://www.w3.org/2000/svg"
 width="99.000000pt" height="172.000000pt" viewBox="0 0 99.000000 172.000000"
 preserveAspectRatio="xMidYMid meet">

<g transform="translate(0.000000,172.000000) scale(0.100000,-0.100000)"
fill="#f7e8bb" stroke="none">
<path d="M431 1700 c-76 -18 -131 -86 -131 -162 0 -224 313 -253 346 -32 18
124 -91 223 -215 194z"/>
<path d="M34 1115 c-29 -44 -29 -97 -1 -141 14 -22 30 -68 36 -103 6 -37 21
-80 35 -100 27 -39 42 -72 50 -112 3 -14 24 -52 46 -85 22 -32 40 -68 40 -79
0 -25 30 -74 81 -134 34 -42 37 -50 30 -81 -11 -51 -26 -74 -72 -113 -23 -20
-38 -40 -34 -46 4 -7 65 -11 170 -11 l163 0 31 -39 c40 -50 98 -74 160 -65 86
12 169 43 190 71 31 38 26 75 -21 169 -38 78 -42 93 -49 196 -5 65 -19 146
-33 197 -14 47 -30 117 -36 154 l-11 69 51 55 c67 74 84 106 75 152 -15 77 24
71 -455 71 l-430 0 -16 -25z m841 -45 c0 -13 -27 -15 -187 -15 -102 0 -190 -3
-194 -7 -17 -18 15 -23 156 -28 82 -3 152 -8 156 -13 18 -18 -19 -28 -124 -34
-75 -4 -111 -10 -109 -17 2 -6 19 -13 37 -16 44 -7 51 -28 10 -36 -42 -9 -33
-27 19 -37 32 -6 41 -13 39 -25 -3 -15 -20 -17 -122 -20 -119 -3 -153 5 -129
29 7 7 28 15 48 18 69 12 41 26 -62 31 -56 3 -104 8 -108 12 -12 12 3 25 35
31 77 16 0 37 -134 37 -64 0 -108 11 -95 24 2 3 62 8 132 12 86 5 126 11 124
18 -2 7 -52 12 -143 14 -158 3 -172 5 -154 27 19 23 805 18 805 -5z m-683
-240 c20 -11 88 -34 150 -51 61 -18 132 -42 157 -55 31 -17 60 -24 100 -24 66
0 91 14 122 70 22 38 42 50 53 32 3 -5 17 -62 31 -127 29 -137 25 -167 -30
-232 -19 -23 -35 -48 -35 -57 0 -9 22 -32 49 -51 50 -36 94 -105 84 -131 -8
-21 -57 -44 -93 -44 -35 0 -97 55 -168 152 -23 31 -63 71 -89 89 -58 39 -249
226 -240 235 3 4 20 1 38 -5 31 -11 49 -8 49 9 0 5 -28 24 -62 42 -65 33 -198
158 -198 186 0 12 3 12 23 -2 12 -9 39 -25 59 -36z m306 -607 c17 -13 32 -33
32 -44 0 -16 -7 -19 -41 -19 -31 0 -47 6 -70 29 -27 27 -38 69 -23 84 8 8 57
-17 102 -50z"/>
</g>
</svg>
