<?xml version="1.0" standalone="no"?>
<!DOCTYPE svg PUBLIC "-//W3C//DTD SVG 20010904//EN"
 "http://www.w3.org/TR/2001/REC-SVG-20010904/DTD/svg10.dtd">
<svg version="1.0" xmlns="http://www.w3.org/2000/svg"
 width="100.000000pt" height="100.000000pt" viewBox="0 0 100.000000 100.000000"
 preserveAspectRatio="xMidYMid meet">

<g transform="translate(0.000000,100.000000) scale(0.100000,-0.100000)"
fill="#14402B" stroke="none">
<path d="M714 963 c-18 -17 -19 -23 -8 -27 8 -3 18 -16 23 -28 8 -22 8 -22 15
-2 3 12 16 26 29 32 17 8 18 11 5 11 -9 1 -23 9 -30 19 -12 16 -14 16 -34 -5z"/>
<path d="M530 880 c0 -6 40 -10 101 -10 64 0 98 4 94 10 -3 6 -48 10 -101 10
-56 0 -94 -4 -94 -10z"/>
<path d="M745 880 c-4 -6 8 -10 30 -10 22 0 34 4 30 10 -3 6 -17 10 -30 10
-13 0 -27 -4 -30 -10z"/>
<path d="M513 681 c4 -102 11 -179 17 -185 7 -7 57 -11 125 -11 110 0 114 1
138 27 24 25 25 33 28 183 l4 156 -159 2 -159 2 6 -174z m86 52 c-1 -56 -4
-87 -8 -73 -4 16 -16 26 -31 29 l-25 4 25 6 c23 6 25 12 28 69 5 97 12 73 11
-35z m57 -12 c5 -23 7 -23 77 -16 85 8 85 -4 0 -15 -32 -4 -66 -11 -75 -15
-16 -6 -18 0 -16 76 1 46 3 64 5 39 2 -25 6 -56 9 -69z m103 -110 c8 -5 -22
-7 -75 -4 -49 3 -91 7 -93 9 -9 8 155 3 168 -5z m27 -58 c-12 -13 -189 -15
-216 -4 -20 9 -11 10 45 6 39 -3 93 -2 120 3 52 9 64 7 51 -5z"/>
<path d="M478 624 c-3 -5 -8 -26 -12 -47 -5 -25 -30 -65 -77 -125 -102 -126
-122 -163 -117 -217 3 -46 0 -53 -19 -34 -12 12 -97 -117 -89 -137 8 -21 83
-55 135 -61 42 -5 50 -3 64 18 12 17 14 26 6 36 -12 14 -15 12 61 33 122 33
221 123 294 268 51 102 51 102 34 102 -17 0 -84 -108 -80 -127 2 -9 -1 -12 -7
-8 -6 3 -41 -14 -77 -40 -108 -75 -90 -45 26 44 23 17 24 22 13 50 -6 18 -7
31 -2 31 5 0 12 -7 15 -15 4 -8 10 -15 14 -15 12 0 54 70 47 77 -4 3 -44 -6
-89 -21 -46 -14 -91 -26 -100 -26 -14 0 -18 -8 -18 -33 0 -18 -6 -41 -13 -51
-12 -16 -13 -14 -9 18 6 49 -5 86 -25 86 -13 0 -10 7 12 30 16 17 25 30 20 30
-5 0 -4 5 3 12 14 14 16 96 3 117 -5 7 -11 9 -13 5z m-132 -426 c-9 -12 -16
-33 -16 -46 0 -14 -4 -21 -11 -16 -19 12 9 84 33 84 5 0 2 -10 -6 -22z m-12
-117 c-7 -7 -44 31 -44 46 0 8 10 2 24 -14 13 -15 22 -30 20 -32z"/>
<path d="M843 500 c0 -30 2 -43 4 -27 2 15 2 39 0 55 -2 15 -4 2 -4 -28z"/>
<path d="M796 476 c-9 -21 -15 -47 -13 -58 3 -10 1 -18 -4 -18 -5 0 -18 -20
-30 -45 -12 -25 -25 -48 -30 -51 -5 -3 -9 -10 -9 -17 0 -18 70 55 91 96 14 26
19 53 17 85 l-4 47 -18 -39z"/>
</g>
</svg>
