<?xml version="1.0" standalone="no"?>
<!DOCTYPE svg PUBLIC "-//W3C//DTD SVG 20010904//EN"
 "http://www.w3.org/TR/2001/REC-SVG-20010904/DTD/svg10.dtd">
<svg version="1.0" xmlns="http://www.w3.org/2000/svg"
 width="90.000000pt" height="101.000000pt" viewBox="0 0 90.000000 101.000000"
 preserveAspectRatio="xMidYMid meet">

<g transform="translate(0.000000,101.000000) scale(0.100000,-0.100000)"
fill="#14402B" stroke="none">
<path d="M760 976 c-5 -15 -19 -30 -30 -33 -11 -3 -20 -9 -20 -13 0 -4 9 -10
20 -13 11 -3 25 -18 30 -33 l11 -28 12 24 c7 14 22 29 35 35 12 5 22 12 22 15
0 3 -10 10 -22 15 -13 6 -28 21 -35 35 l-12 24 -11 -28z"/>
<path d="M482 860 c-49 -11 -49 -17 -1 -30 56 -15 383 -10 400 7 12 12 5 15
-57 28 -25 5 -32 2 -42 -17 l-11 -23 -7 23 c-6 21 -10 22 -128 21 -66 -1 -136
-5 -154 -9z"/>
<path d="M430 785 c0 -83 75 -154 179 -171 33 -5 39 -9 30 -20 -6 -7 -8 -18
-4 -24 4 -6 10 -32 13 -57 4 -26 12 -48 17 -50 12 -4 39 123 30 138 -4 5 1 9
11 9 44 0 103 28 146 70 44 42 48 50 48 93 l0 47 -32 -8 c-44 -10 -354 -9
-400 1 l-38 8 0 -36z m62 -7 c6 -17 267 -24 332 -10 25 5 46 6 46 2 0 -16
-146 -32 -249 -28 -101 4 -151 17 -151 38 0 14 18 12 22 -2z m183 -120 c60
-17 21 -20 -70 -4 l-80 14 55 1 c30 0 73 -4 95 -11z"/>
<path d="M397 638 c-67 -18 -212 -202 -329 -417 l-69 -126 23 -19 c38 -31 123
-66 176 -73 l50 -6 20 54 c32 87 34 97 21 105 -7 4 9 13 39 20 63 16 117 50
182 112 43 41 53 47 89 46 28 -1 41 2 41 11 0 24 -14 24 -103 7 -81 -17 -88
-20 -127 -64 -22 -26 -64 -58 -92 -72 -52 -26 -108 -34 -108 -16 0 6 11 10 25
10 34 0 102 35 143 73 34 33 42 53 16 43 -8 -3 -13 -2 -10 3 7 11 108 38 174
47 l53 7 -21 19 c-17 16 -19 23 -9 34 6 8 19 14 27 14 13 0 12 -3 -4 -15 -19
-15 -19 -15 1 -30 24 -19 49 -15 53 8 8 40 -14 47 -144 47 -71 0 -125 4 -129
10 -4 6 5 10 21 10 20 0 24 3 17 13 -6 6 -13 21 -17 32 -5 14 2 10 23 -12 29
-32 33 -33 103 -32 l73 1 -42 15 c-49 17 -59 36 -12 23 36 -11 49 -6 50 18 0
11 4 9 11 -8 6 -14 12 -20 15 -13 2 7 -1 21 -7 33 -10 19 -17 20 -69 14 -39
-4 -61 -3 -65 5 -5 7 5 11 31 11 65 0 68 14 8 43 -60 29 -70 30 -128 15z"/>
<path d="M743 593 c-7 -2 -13 -9 -13 -14 0 -15 53 -6 58 9 4 12 -21 15 -45 5z"/>
<path d="M700 461 c0 -27 5 -41 17 -45 28 -11 35 9 17 48 -23 47 -34 46 -34
-3z"/>
<path d="M702 371 c2 -19 9 -36 16 -39 17 -5 15 30 -3 54 -14 18 -15 17 -13
-15z"/>
<path d="M663 379 c-7 -7 -13 -33 -13 -56 0 -50 -20 -95 -52 -117 -25 -18 -42
-21 -33 -6 8 13 1 13 -40 -4 -19 -8 -35 -21 -35 -29 0 -28 61 -42 185 -42 100
0 126 3 149 18 21 14 25 21 16 32 -17 20 -68 36 -73 22 -4 -13 -42 12 -64 43
-8 11 -18 50 -21 86 -6 52 -9 63 -19 53z m46 -225 c10 -9 -105 -3 -118 5 -9 6
9 7 50 4 35 -3 66 -7 68 -9z"/>
</g>
</svg>
