<?xml version="1.0" standalone="no"?>
<!DOCTYPE svg PUBLIC "-//W3C//DTD SVG 20010904//EN"
 "http://www.w3.org/TR/2001/REC-SVG-20010904/DTD/svg10.dtd">
<svg version="1.0" xmlns="http://www.w3.org/2000/svg"
 width="260.000000pt" height="260.000000pt" viewBox="0 0 260.000000 260.000000"
 preserveAspectRatio="xMidYMid meet">
<metadata>
Created by potrace 1.14, written by Peter Selinger 2001-2017
</metadata>
<g transform="translate(0.000000,260.000000) scale(0.100000,-0.100000)"
fill="#000000" stroke="none">
<path d="M1435 2548 c-33 -11 -67 -22 -75 -25 -8 -4 -19 -5 -23 -4 -4 1 -33
-6 -64 -15 -30 -9 -63 -18 -72 -19 -9 -2 -18 -4 -21 -5 -3 -1 -8 -2 -12 -1 -5
0 -8 -5 -8 -12 0 -8 -4 -7 -10 3 -5 8 -10 10 -10 4 0 -7 -15 -15 -32 -18 -44
-8 -55 -11 -183 -46 -60 -17 -121 -33 -134 -36 -46 -9 -44 -17 8 -36 82 -31
171 -137 171 -204 0 -13 5 -26 10 -29 6 -4 8 -11 4 -16 -3 -5 -2 -15 3 -22 5
-7 9 -19 8 -27 0 -8 2 -17 5 -20 3 -3 14 -36 23 -75 23 -91 25 -100 27 -100 1
0 3 -7 5 -15 2 -8 8 -35 14 -60 11 -43 20 -80 24 -104 1 -6 5 -13 8 -16 3 -3
11 -30 17 -60 16 -74 20 -89 26 -98 3 -5 7 -19 10 -33 3 -13 7 -33 10 -44 20
-75 28 -112 29 -122 0 -7 3 -13 7 -13 3 0 6 -8 7 -17 2 -19 40 -167 50 -193 3
-8 7 -22 8 -30 4 -17 5 -22 35 -135 19 -70 27 -101 34 -140 1 -5 4 -14 7 -20
12 -20 3 -200 -11 -225 -8 -14 -14 -28 -15 -32 0 -12 -97 -98 -105 -93 -4 3
-13 -2 -20 -10 -7 -8 -16 -12 -21 -9 -5 3 -9 1 -9 -3 0 -11 -14 -13 -107 -17
-46 -2 -73 1 -73 7 0 6 -3 8 -6 4 -8 -8 -76 26 -93 46 -9 12 -9 18 2 29 48 47
64 147 38 231 -8 26 -18 47 -23 47 -4 0 -8 6 -8 14 0 22 -79 82 -122 94 -21 6
-38 8 -38 5 0 -3 -7 0 -15 7 -12 10 -15 10 -15 -1 0 -10 -3 -10 -11 -2 -7 7
-18 8 -28 3 -9 -5 -33 -12 -54 -15 -20 -3 -37 -10 -37 -15 0 -6 -5 -10 -12
-10 -22 0 -78 -51 -104 -96 -104 -177 -34 -410 161 -543 42 -29 126 -71 147
-75 7 -1 18 -5 24 -8 6 -4 29 -10 50 -13 21 -2 50 -7 64 -10 65 -15 222 -6
305 17 22 6 45 12 50 12 45 4 193 73 261 121 72 51 204 202 204 233 0 6 3 12
8 14 4 1 15 19 24 38 29 61 69 152 71 164 1 6 4 13 7 16 14 14 38 70 27 64 -6
-4 -4 2 6 13 9 11 17 23 17 27 0 4 7 14 15 22 20 21 19 34 -3 34 -24 0 -91 66
-98 97 -4 13 -9 23 -13 23 -7 0 -36 85 -36 105 0 6 -3 12 -6 15 -4 3 -8 19
-10 35 -2 17 -6 35 -10 40 -5 8 -21 66 -35 128 -1 4 -2 8 -3 10 -2 1 -4 13 -7
27 -2 14 -7 32 -11 40 -3 8 -7 22 -8 30 -1 8 -12 50 -24 92 -12 43 -24 85 -26
95 -3 10 -9 34 -14 53 -13 46 -31 111 -35 130 -15 56 -48 180 -56 205 -5 17
-12 44 -15 60 -9 46 -10 49 -16 60 -8 12 -23 87 -21 98 1 4 -2 7 -6 7 -5 0 -9
6 -9 13 0 6 -4 26 -8 42 -10 45 -20 108 -19 125 2 34 17 91 25 96 5 3 7 9 5
13 -3 4 11 25 30 46 27 31 45 60 32 54 -2 -1 -30 -10 -63 -21z"/>
<path d="M1583 2511 c-29 -31 -53 -64 -54 -76 0 -5 -3 -19 -5 -30 -10 -41 -10
-75 -1 -75 5 0 4 -7 -3 -15 -9 -10 -9 -15 -1 -15 6 0 11 -11 11 -23 0 -13 3
-27 7 -30 3 -4 7 -17 8 -30 1 -12 10 -48 19 -79 9 -32 23 -84 31 -115 9 -32
18 -65 22 -73 3 -8 6 -18 5 -22 -1 -3 6 -30 15 -60 9 -29 17 -60 17 -68 1 -8
5 -21 10 -28 4 -7 9 -23 11 -35 2 -12 6 -32 9 -44 3 -13 8 -31 10 -40 3 -10 9
-33 15 -51 5 -18 10 -35 10 -37 1 -3 1 -6 2 -7 0 -2 2 -10 4 -18 2 -8 11 -42
20 -75 40 -143 53 -195 48 -195 -3 0 -1 -6 5 -12 6 -7 13 -31 17 -53 4 -22 13
-46 19 -54 9 -12 8 -13 -2 -7 -10 6 -9 0 2 -23 9 -17 14 -31 12 -31 -3 0 6
-28 21 -62 37 -88 81 -144 127 -162 36 -15 38 -17 24 -33 -9 -10 -21 -35 -29
-56 -7 -20 -17 -37 -22 -37 -4 0 -6 -4 -3 -9 3 -5 -1 -22 -9 -37 -8 -16 -15
-35 -15 -41 0 -7 -5 -13 -10 -13 -6 0 -9 -3 -8 -8 4 -10 -54 -146 -65 -153 -5
-3 -9 -9 -9 -12 0 -20 -12 -47 -20 -47 -6 0 -8 -9 -5 -20 3 -10 0 -18 -5 -17
-6 1 -12 -7 -14 -18 -2 -14 7 -8 34 20 21 22 36 43 35 47 -2 4 5 11 14 17 10
6 14 11 8 11 -6 0 -6 3 0 8 21 14 102 160 110 197 1 5 11 31 23 58 12 26 21
50 21 53 0 3 7 16 15 30 9 13 13 24 10 24 -4 0 1 9 11 20 21 23 21 22 -25 40
-43 17 -97 71 -116 116 -8 19 -13 35 -12 37 2 2 -2 10 -8 18 -13 16 -28 68
-25 86 1 7 -2 13 -7 13 -5 0 -8 11 -7 25 2 14 -2 25 -8 25 -5 0 -8 3 -5 6 3 3
-2 32 -12 65 -10 32 -16 59 -13 59 3 0 0 7 -7 15 -7 8 -10 15 -7 15 3 0 -3 27
-13 60 -10 33 -16 60 -13 60 3 0 0 6 -6 13 -6 8 -12 30 -13 50 -2 20 -6 37 -9
37 -4 0 -9 12 -11 28 -5 24 -36 142 -89 337 -11 39 -22 81 -25 95 -9 39 -10
44 -18 61 -4 9 -8 27 -10 40 -2 13 -6 31 -9 39 -10 29 -30 113 -30 126 0 8 -3
14 -7 14 -7 0 -5 92 3 127 3 12 13 33 22 47 20 30 4 35 -22 7z"/>
<path d="M2043 1223 c-7 -3 -13 -11 -13 -19 0 -9 5 -12 10 -9 6 3 10 1 10 -5
0 -6 5 -8 11 -4 7 4 9 -10 7 -45 -3 -32 0 -52 7 -55 22 -8 31 9 31 54 -1 37 3
45 17 44 10 -1 17 5 17 16 0 22 -24 32 -39 17 -6 -6 -11 -7 -11 -1 0 10 -27
15 -47 7z"/>
<path d="M2167 1222 c-2 -4 -5 -27 -6 -51 -1 -24 -2 -47 -3 -50 -2 -19 4 -30
18 -35 13 -5 15 0 12 33 -2 30 0 37 9 30 6 -6 15 -23 18 -39 4 -20 11 -27 21
-23 7 3 12 8 10 12 -6 9 12 51 22 51 5 0 7 -13 4 -29 -4 -26 12 -50 24 -38 3
3 6 33 7 67 2 56 0 64 -20 71 -19 7 -23 3 -36 -34 l-14 -42 -10 34 c-8 31 -47
61 -56 43z"/>
<path d="M950 818 c21 -21 45 -54 51 -73 7 -19 16 -35 19 -35 4 0 7 -6 8 -12
7 -89 10 -110 15 -115 4 -3 3 -13 -1 -22 -5 -9 -7 -26 -6 -38 0 -13 -2 -23 -6
-23 -5 0 -7 -8 -5 -17 2 -10 4 -21 4 -25 1 -11 49 -10 55 0 9 14 18 66 18 104
0 44 -21 136 -33 144 -5 3 -9 14 -9 25 0 10 -4 19 -8 19 -5 0 -21 18 -38 40
-16 22 -35 40 -41 40 -7 0 -13 5 -13 11 0 5 -4 7 -10 4 -5 -3 -10 -2 -10 3 0
5 -7 9 -15 9 -9 0 1 -16 25 -39z"/>
</g>
</svg>
